<?xml version="1.0" encoding="UTF-8"?><svg viewBox="0 0 87 40" xmlns="http://www.w3.org/2000/svg"><path d="m20.403 28.128-2.7976 2.827c-0.4517 0.4933-1.0279 0.4523-1.481 0l-10.037-10.01v9.3219c0 0.6573-0.36953 1.0262-1.0279 1.0262h-4.0322c-0.65694 0-1.0279-0.3689-1.0279-1.0262v-29.241c0-0.65727 0.37094-1.0262 1.0279-1.0262h4.0322c0.65835 0 1.0279 0.36892 1.0279 1.0262v9.5749h13.616c0.6584 0 1.0279 0.3703 1.0279 1.0262v4.0623c0 0.6573-0.3695 1.0262-1.0279 1.0262h-9.2551l9.9545 9.9382c0.4517 0.4509 0.4517 0.9852 0 1.4742z" fill="#36A635"/><path d="m42.739 20.904c0 0.4099-0.041 0.8622-0.0821 1.2721-0.0821 0.6573-0.4941 0.9457-1.11 0.9457h-13.493c0.6994 1.8064 2.4677 2.9979 4.6891 2.9979 1.6041 0 2.8316-0.6162 3.7434-1.6028 0.412-0.4919 0.8637-0.6149 1.3988-0.2827l3.1262 1.8898c0.5762 0.3689 0.7404 0.8622 0.3284 1.3951-1.8915 2.6291-5.0176 4.2305-8.6789 4.2305-6.2522 0-10.777-4.6814-10.777-10.759 0-6.1599 4.3182-10.843 10.447-10.843 6.1786-0.0042 10.408 4.5953 10.408 10.757zm-6.0058-2.1767c-0.5763-1.9789-2.2214-3.039-4.3593-3.039-2.2653 0-3.909 1.0672-4.4428 3.039h8.8021z" fill="#36A635"/><path d="m63.101 18.316v11.951c0 0.6572-0.3696 1.0262-1.0279 1.0262h-3.9091c-0.6569 0-1.0279-0.369-1.0279-1.0262v-1.1916c-1.5573 1.8488-3.4135 2.6701-5.717 2.6701-4.5306 0-7.5278-2.5867-7.5278-6.4893 0-4.0652 2.9618-6.6518 7.3622-6.6518h5.8826v-0.4523c0-1.4785-1.3988-2.4637-3.4545-2.4637-1.3167 0-2.5924 0.4919-3.1686 1.1901-0.3695 0.4523-0.6584 0.7393-1.2332 0.7393h-3.8227c-0.6994 0-1.1114-0.369-0.991-0.9895 0.7829-3.9012 4.1554-6.4892 9.1319-6.4892 5.7242 0.0042 9.503 3.2891 9.503 8.1769zm-5.9649 5.2977v-0.6982h-4.893c-1.6466 0-2.3035 0.8622-2.3035 2.0128 0 1.0672 0.8636 1.9308 2.9605 1.9308 2.5498-0.0028 4.236-1.3145 4.236-3.2454z" fill="#36A635"/><path d="m87 20.986c0 5.996-4.2361 10.759-9.8314 10.759-2.3445 0-4.3196-0.8622-5.5938-2.2997v9.5282c0 0.6559-0.371 1.0262-1.0293 1.0262h-4.0308c-0.6584 0-1.0279-0.3703-1.0279-1.0262v-27.352c0-0.6558 0.3695-1.0262 1.0279-1.0262h3.9076c0.6584 0 1.0293 0.3704 1.0293 1.0262v1.1506c1.3153-1.6835 3.3314-2.6291 5.6349-2.6291 5.5528 0 9.9135 4.7239 9.9135 10.843zm-6.088 0c0-2.793-1.9821-4.9288-4.6891-4.9288-2.8798 0-4.8534 2.1358-4.8534 4.9288 0 2.7097 1.9736 4.8454 4.8534 4.8454 2.7141 0 4.6891-2.1357 4.6891-4.8454z" fill="#36A635"/></svg>
